<svg width="15" height="18" viewBox="0 0 15 18" fill="none" xmlns="http://www.w3.org/2000/svg">
<path d="M9.26946 17.2311H3.06528C1.63238 17.2311 0.466675 16.0654 0.466675 14.6325V5.82967C0.466675 4.39677 1.63238 3.23107 3.06528 3.23107H9.26946C10.7024 3.23107 11.8681 4.39677 11.8681 5.82967V14.6325C11.8681 16.0654 10.7024 17.2311 9.26946 17.2311ZM3.06528 4.53037C2.34888 4.53037 1.76598 5.11327 1.76598 5.82967V14.6325C1.76598 15.3489 2.34888 15.9318 3.06528 15.9318H9.26946C9.98586 15.9318 10.5688 15.3489 10.5688 14.6325V5.82967C10.5688 5.11327 9.98586 4.53037 9.26946 4.53037H3.06528ZM14.4667 13.0083V3.19858C14.4667 1.76568 13.301 0.599976 11.8681 0.599976H4.65693C4.29809 0.599976 4.00728 0.890792 4.00728 1.24963C4.00728 1.60846 4.29809 1.89928 4.65693 1.89928H11.8681C12.5845 1.89928 13.1674 2.48218 13.1674 3.19858V13.0083C13.1674 13.3672 13.4582 13.658 13.817 13.658C14.1759 13.658 14.4667 13.3672 14.4667 13.0083Z" fill="#969696"/>
</svg>
