<svg width="28" height="28" viewBox="0 0 28 28" fill="none" xmlns="http://www.w3.org/2000/svg">
<path d="M17.461 12.9752C19.4007 12.9752 20.9778 11.3974 20.9778 9.45842C20.9778 7.51946 19.4015 5.93945 17.461 5.93945C15.5206 5.93945 13.9435 7.51727 13.9435 9.45696C13.9435 11.3967 15.5214 12.9745 17.4603 12.9745L17.461 12.9752ZM17.461 7.39641C18.5969 7.39641 19.5216 8.32111 19.5216 9.45769C19.5216 10.5943 18.5969 11.519 17.461 11.519C16.3252 11.519 15.3998 10.5943 15.3998 9.45842C15.3998 8.32256 16.3252 7.39641 17.461 7.39641ZM17.3955 18.8198C17.3955 19.0129 17.4722 19.1981 17.6088 19.3346C17.7453 19.4712 17.9305 19.5479 18.1236 19.5479H21.7351C22.8636 19.5479 23.7811 18.6268 23.7811 17.4946C23.7791 16.5998 23.4223 15.7424 22.789 15.1104C22.1556 14.4784 21.2974 14.1234 20.4026 14.1234H15.102C14.9089 14.1234 14.7237 14.2001 14.5871 14.3367C14.4506 14.4732 14.3739 14.6584 14.3739 14.8515C14.3739 15.0447 14.4506 15.2299 14.5871 15.3664C14.7237 15.5029 14.9089 15.5797 15.102 15.5797H20.4026C21.462 15.5797 22.3248 16.4388 22.3248 17.4946C22.3248 17.8237 22.0605 18.0916 21.7351 18.0916H18.1236C17.9654 18.0948 17.8127 18.1507 17.6897 18.2504C17.5997 18.3159 17.5263 18.4014 17.4752 18.5003C17.4242 18.5991 17.3969 18.7085 17.3955 18.8198ZM6.19715 11.7949C6.19715 13.7346 7.77424 15.3117 9.71394 15.3117C11.6536 15.3117 13.2314 13.7346 13.2314 11.7949C13.2314 9.85524 11.6536 8.27815 9.71466 8.27815C7.7757 8.27815 6.19715 9.85524 6.19715 11.7949ZM9.71394 13.8555C9.16768 13.8547 8.64401 13.6374 8.25775 13.2511C7.87149 12.8649 7.65415 12.3412 7.65338 11.7949C7.65338 10.6591 8.57808 9.73437 9.71394 9.73437C10.8498 9.73437 11.7752 10.6591 11.7752 11.7949C11.7752 12.9308 10.8498 13.8555 9.71394 13.8555ZM5.44283 21.8844H13.985C14.5283 21.8836 15.0491 21.6674 15.4332 21.2832C15.8173 20.8989 16.0334 20.378 16.0339 19.8347C16.0328 18.9399 15.6768 18.0819 15.044 17.4492C14.4112 16.8164 13.5533 16.4604 12.6584 16.4592H6.77018C5.87516 16.4602 5.01707 16.8161 4.38412 17.4489C3.75118 18.0817 3.39508 18.9397 3.39392 19.8347C3.3945 20.378 3.61053 20.8989 3.99463 21.2832C4.37872 21.6674 4.89954 21.8836 5.44283 21.8844ZM6.77018 17.9154H12.6584C13.1672 17.9162 13.655 18.1187 14.0147 18.4784C14.3745 18.8382 14.577 19.326 14.5777 19.8347C14.5777 20.1624 14.312 20.4282 13.985 20.4282H5.44283C5.28557 20.428 5.13482 20.3654 5.02369 20.2541C4.91257 20.1428 4.85015 19.992 4.85015 19.8347C4.85092 19.3258 5.05348 18.838 5.4134 18.4782C5.77333 18.1184 6.26126 17.916 6.77018 17.9154Z" fill="white"/>
</svg>
